<?xml version="1.0" standalone="yes"?>
<!DOCTYPE svg[<!ENTITY s "m0 .5a.5.5 0 1 1 1 0 .5.5 0 1 1-1 0z">]>
<svg xmlns="http://www.w3.org/2000/svg" xmlns:xlink="http://www.w3.org/1999/xlink" viewBox="0 0 64 64" width="960px" height="960px">
<defs>
<g id="d">
<path fill="#000" d="M37,4&s;M38,4&s;M39,4&s;M40,4&s;M23,5&s;M24,5&s;M25,5&s;M36,5&s;M38,5&s;M39,5&s;M40,5&s;M41,5&s;M22,6&s;M24,6&s;M25,6&s;M26,6&s;M35,6&s;M37,6&s;M40,6&s;M41,6&s;M21,7&s;M23,7&s;M24,7&s;M25,7&s;M26,7&s;M34,7&s;M36,7&s;M42,7&s;M20,8&s;M22,8&s;M23,8&s;M33,8&s;M35,8&s;M43,8&s;M20,9&s;M21,9&s;M22,9&s;M33,9&s;M35,9&s;M20,10&s;M21,10&s;M34,10&s;M36,10&s;M20,11&s;M35,11&s;M37,11&s;M36,12&s;M38,12&s;M37,13&s;M38,13&s;M26,14&s;M27,14&s;M33,14&s;M34,14&s;M25,15&s;M35,15&s;M36,15&s;M24,16&s;M37,16&s;M38,16&s;M23,17&s;M39,17&s;M25,18&s;M26,18&s;M34,18&s;M35,18&s;M24,19&s;M27,19&s;M33,19&s;M36,19&s;M24,20&s;M27,20&s;M33,20&s;M36,20&s;M25,21&s;M26,21&s;M34,21&s;M35,21&s;M15,28&s;M16,28&s;M17,28&s;M18,28&s;M15,29&s;M19,29&s;M20,29&s;M21,29&s;M15,30&s;M22,30&s;M23,30&s;M24,30&s;M15,31&s;M15,32&s;M15,33&s;M15,34&s;M16,35&s;M22,35&s;M17,36&s;M18,36&s;M19,36&s;M20,36&s;M21,36&s;M40,37&s;M41,37&s;M42,37&s;M37,38&s;M40,38&s;M41,38&s;M42,38&s;M37,39&s;M40,39&s;M41,39&s;M42,39&s;M37,40&s;M43,40&s;M37,41&s;M43,41&s;M37,42&s;M43,42&s;M37,43&s;M44,43&s;M29,44&s;M37,44&s;M44,44&s;M29,45&s;M37,45&s;M44,45&s;M28,46&s;M32,46&s;M37,46&s;M45,46&s;M24,47&s;M28,47&s;M32,47&s;M45,47&s;M28,48&s;M38,48&s;M43,48&s;M44,48&s;M39,49&s;M40,49&s;M41,49&s;M42,49&s;M38,50&s;M27,51&s;M38,51&s;M27,52&s;M32,52&s;M38,52&s;M27,53&s;M32,53&s;M38,53&s;M27,54&s;M32,54&s;M38,54&s;M27,55&s;M32,55&s;M33,55&s;M38,55&s;M27,56&s;M32,56&s;M33,56&s;M38,56&s;M26,57&s;M27,57&s;M31,57&s;M34,57&s;M38,57&s;M39,57&s;M25,58&s;M31,58&s;M34,58&s;M40,58&s;M25,59&s;M26,59&s;M27,59&s;M28,59&s;M29,59&s;M30,59&s;M35,59&s;M36,59&s;M37,59&s;M38,59&s;M39,59&s;M40,59&s;"/>
	<path fill="#f41e68" d="M37,5&s;M23,6&s;M36,6&s;M22,7&s;M35,7&s;M21,8&s;M34,8&s;M34,9&s;M35,10&s;M36,11&s;M37,12&s;M28,24&s;M29,24&s;M30,24&s;M28,25&s;M39,33&s;M39,34&s;M40,34&s;"/>
	<path fill="#155940" d="M27,7&s;M28,7&s;M29,7&s;M30,7&s;M31,7&s;M32,7&s;M33,7&s;M38,7&s;M39,7&s;M40,7&s;M41,7&s;M24,8&s;M25,8&s;M26,8&s;M36,8&s;M37,8&s;M42,8&s;M23,9&s;M37,9&s;M43,9&s;M22,10&s;M28,10&s;M29,10&s;M33,10&s;M37,10&s;M44,10&s;M21,11&s;M24,11&s;M27,11&s;M30,11&s;M33,11&s;M38,11&s;M45,11&s;M20,12&s;M23,12&s;M26,12&s;M30,12&s;M33,12&s;M39,12&s;M46,12&s;M19,13&s;M22,13&s;M26,13&s;M31,13&s;M33,13&s;M36,13&s;M39,13&s;M47,13&s;M19,14&s;M21,14&s;M25,14&s;M31,14&s;M37,14&s;M40,14&s;M47,14&s;M18,15&s;M21,15&s;M32,15&s;M34,15&s;M37,15&s;M41,15&s;M48,15&s;M18,16&s;M20,16&s;M32,16&s;M34,16&s;M41,16&s;M48,16&s;M17,17&s;M18,17&s;M20,17&s;M24,17&s;M33,17&s;M34,17&s;M38,17&s;M42,17&s;M49,17&s;M17,18&s;M18,18&s;M19,18&s;M20,18&s;M24,18&s;M38,18&s;M42,18&s;M49,18&s;M16,19&s;M18,19&s;M20,19&s;M23,19&s;M38,19&s;M42,19&s;M50,19&s;M16,20&s;M20,20&s;M23,20&s;M39,20&s;M42,20&s;M43,20&s;M50,20&s;M16,21&s;M20,21&s;M23,21&s;M39,21&s;M42,21&s;M43,21&s;M51,21&s;M16,22&s;M20,22&s;M39,22&s;M42,22&s;M43,22&s;M51,22&s;M15,23&s;M20,23&s;M23,23&s;M39,23&s;M41,23&s;M43,23&s;M52,23&s;M15,24&s;M21,24&s;M23,24&s;M39,24&s;M40,24&s;M42,24&s;M44,24&s;M52,24&s;M15,25&s;M21,25&s;M23,25&s;M39,25&s;M42,25&s;M44,25&s;M52,25&s;M22,26&s;M41,26&s;M44,26&s;M52,26&s;M22,27&s;M23,27&s;M24,27&s;M38,27&s;M40,27&s;M44,27&s;M53,27&s;M22,28&s;M24,28&s;M25,28&s;M37,28&s;M39,28&s;M41,28&s;M44,28&s;M53,28&s;M22,29&s;M36,29&s;M37,29&s;M38,29&s;M40,29&s;M41,29&s;M44,29&s;M53,29&s;M42,30&s;M45,30&s;M53,30&s;M45,31&s;M54,31&s;M30,32&s;M45,32&s;M54,32&s;M14,33&s;M29,33&s;M31,33&s;M45,33&s;M54,33&s;M14,34&s;M29,34&s;M30,34&s;M31,34&s;M45,34&s;M54,34&s;M14,35&s;M29,35&s;M31,35&s;M45,35&s;M55,35&s;M13,36&s;M23,36&s;M29,36&s;M31,36&s;M45,36&s;M55,36&s;M13,37&s;M23,37&s;M28,37&s;M32,37&s;M45,37&s;M55,37&s;M13,38&s;M23,38&s;M28,38&s;M32,38&s;M45,38&s;M55,38&s;M13,39&s;M23,39&s;M28,39&s;M32,39&s;M45,39&s;M55,39&s;M13,40&s;M23,40&s;M27,40&s;M32,40&s;M45,40&s;M56,40&s;M13,41&s;M27,41&s;M32,41&s;M45,41&s;M56,41&s;M13,42&s;M28,42&s;M31,42&s;M45,42&s;M56,42&s;M13,43&s;M29,43&s;M45,43&s;M56,43&s;M13,44&s;M45,44&s;M56,44&s;M14,45&s;M45,45&s;M56,45&s;M14,46&s;M56,46&s;M14,47&s;M23,47&s;M56,47&s;M15,48&s;M56,48&s;M15,49&s;M23,49&s;M38,49&s;M44,49&s;M55,49&s;M15,50&s;M23,50&s;M44,50&s;M46,50&s;M55,50&s;M16,51&s;M22,51&s;M32,51&s;M44,51&s;M45,51&s;M47,51&s;M55,51&s;M16,52&s;M22,52&s;M44,52&s;M47,52&s;M55,52&s;M16,53&s;M21,53&s;M47,53&s;M54,53&s;M17,54&s;M21,54&s;M48,54&s;M54,54&s;M17,55&s;M20,55&s;M48,55&s;M53,55&s;M18,56&s;M19,56&s;M49,56&s;M53,56&s;M19,57&s;M50,57&s;M52,57&s;M50,58&s;M51,58&s;"/>
	<path fill="#3eb8a5" d="M27,8&s;M28,8&s;M29,8&s;M30,8&s;M31,8&s;M32,8&s;M38,8&s;M39,8&s;M24,9&s;M25,9&s;M26,9&s;M27,9&s;M28,9&s;M29,9&s;M30,9&s;M31,9&s;M32,9&s;M38,9&s;M39,9&s;M40,9&s;M41,9&s;M23,10&s;M24,10&s;M25,10&s;M26,10&s;M27,10&s;M30,10&s;M31,10&s;M32,10&s;M38,10&s;M39,10&s;M40,10&s;M41,10&s;M42,10&s;M23,11&s;M25,11&s;M26,11&s;M31,11&s;M32,11&s;M39,11&s;M40,11&s;M41,11&s;M42,11&s;M43,11&s;M44,11&s;M8,12&s;M22,12&s;M24,12&s;M25,12&s;M31,12&s;M32,12&s;M40,12&s;M41,12&s;M42,12&s;M43,12&s;M44,12&s;M45,12&s;M8,13&s;M12,13&s;M21,13&s;M23,13&s;M24,13&s;M40,13&s;M41,13&s;M42,13&s;M43,13&s;M44,13&s;M45,13&s;M46,13&s;M8,14&s;M12,14&s;M22,14&s;M23,14&s;M38,14&s;M39,14&s;M41,14&s;M42,14&s;M43,14&s;M44,14&s;M45,14&s;M46,14&s;M9,15&s;M11,15&s;M12,15&s;M22,15&s;M38,15&s;M39,15&s;M40,15&s;M42,15&s;M43,15&s;M44,15&s;M45,15&s;M46,15&s;M47,15&s;M9,16&s;M11,16&s;M22,16&s;M39,16&s;M40,16&s;M42,16&s;M43,16&s;M44,16&s;M45,16&s;M46,16&s;M47,16&s;M9,17&s;M10,17&s;M11,17&s;M40,17&s;M41,17&s;M43,17&s;M45,17&s;M46,17&s;M47,17&s;M48,17&s;M10,18&s;M39,18&s;M41,18&s;M43,18&s;M44,18&s;M46,18&s;M47,18&s;M48,18&s;M17,19&s;M39,19&s;M41,19&s;M43,19&s;M44,19&s;M46,19&s;M47,19&s;M48,19&s;M17,20&s;M18,20&s;M44,20&s;M47,20&s;M48,20&s;M17,21&s;M18,21&s;M44,21&s;M45,21&s;M47,21&s;M48,21&s;M49,21&s;M17,22&s;M44,22&s;M45,22&s;M47,22&s;M48,22&s;M49,22&s;M16,23&s;M17,23&s;M44,23&s;M45,23&s;M47,23&s;M48,23&s;M49,23&s;M50,23&s;M16,24&s;M17,24&s;M45,24&s;M47,24&s;M48,24&s;M49,24&s;M50,24&s;M16,25&s;M45,25&s;M46,25&s;M48,25&s;M49,25&s;M50,25&s;M15,26&s;M16,26&s;M45,26&s;M46,26&s;M48,26&s;M49,26&s;M50,26&s;M15,27&s;M16,27&s;M45,27&s;M46,27&s;M48,27&s;M49,27&s;M50,27&s;M51,27&s;M45,28&s;M46,28&s;M48,28&s;M49,28&s;M50,28&s;M51,28&s;M45,29&s;M46,29&s;M48,29&s;M49,29&s;M50,29&s;M51,29&s;M46,30&s;M48,30&s;M49,30&s;M50,30&s;M51,30&s;M25,31&s;M46,31&s;M48,31&s;M49,31&s;M50,31&s;M51,31&s;M52,31&s;M24,32&s;M46,32&s;M47,32&s;M48,32&s;M49,32&s;M51,32&s;M52,32&s;M23,33&s;M46,33&s;M47,33&s;M48,33&s;M49,33&s;M50,33&s;M52,33&s;M23,34&s;M46,34&s;M47,34&s;M48,34&s;M49,34&s;M50,34&s;M52,34&s;M15,35&s;M46,35&s;M47,35&s;M48,35&s;M49,35&s;M50,35&s;M52,35&s;M53,35&s;M14,36&s;M15,36&s;M30,36&s;M46,36&s;M47,36&s;M49,36&s;M50,36&s;M51,36&s;M53,36&s;M14,37&s;M15,37&s;M29,37&s;M30,37&s;M46,37&s;M47,37&s;M48,37&s;M50,37&s;M51,37&s;M53,37&s;M14,38&s;M15,38&s;M29,38&s;M30,38&s;M39,38&s;M46,38&s;M47,38&s;M48,38&s;M50,38&s;M51,38&s;M53,38&s;M14,39&s;M15,39&s;M29,39&s;M30,39&s;M46,39&s;M47,39&s;M48,39&s;M51,39&s;M53,39&s;M14,40&s;M15,40&s;M16,40&s;M29,40&s;M46,40&s;M47,40&s;M48,40&s;M51,40&s;M52,40&s;M54,40&s;M14,41&s;M15,41&s;M16,41&s;M46,41&s;M47,41&s;M48,41&s;M51,41&s;M52,41&s;M54,41&s;M14,42&s;M15,42&s;M16,42&s;M46,42&s;M47,42&s;M48,42&s;M52,42&s;M54,42&s;M14,43&s;M15,43&s;M16,43&s;M46,43&s;M47,43&s;M48,43&s;M52,43&s;M54,43&s;M14,44&s;M15,44&s;M16,44&s;M21,44&s;M46,44&s;M47,44&s;M48,44&s;M52,44&s;M53,44&s;M15,45&s;M16,45&s;M17,45&s;M21,45&s;M46,45&s;M47,45&s;M48,45&s;M52,45&s;M53,45&s;M15,46&s;M16,46&s;M17,46&s;M22,46&s;M46,46&s;M47,46&s;M48,46&s;M53,46&s;M15,47&s;M16,47&s;M17,47&s;M18,47&s;M46,47&s;M47,47&s;M48,47&s;M49,47&s;M53,47&s;M16,48&s;M17,48&s;M18,48&s;M24,48&s;M25,48&s;M45,48&s;M46,48&s;M47,48&s;M48,48&s;M49,48&s;M53,48&s;M16,49&s;M18,49&s;M29,49&s;M30,49&s;M33,49&s;M45,49&s;M47,49&s;M48,49&s;M49,49&s;M53,49&s;M16,50&s;M18,50&s;M19,50&s;M27,50&s;M28,50&s;M48,50&s;M49,50&s;M53,50&s;M18,51&s;M19,51&s;M29,51&s;M30,51&s;M33,51&s;M34,51&s;M49,51&s;M19,52&s;M49,52&s;"/>
	<path fill="#178a69" d="M40,8&s;M41,8&s;M36,9&s;M42,9&s;M43,10&s;M7,11&s;M8,11&s;M9,11&s;M22,11&s;M7,12&s;M9,12&s;M11,12&s;M12,12&s;M13,12&s;M21,12&s;M7,13&s;M9,13&s;M11,13&s;M13,13&s;M20,13&s;M25,13&s;M32,13&s;M7,14&s;M9,14&s;M11,14&s;M13,14&s;M20,14&s;M24,14&s;M32,14&s;M8,15&s;M10,15&s;M13,15&s;M19,15&s;M20,15&s;M23,15&s;M24,15&s;M33,15&s;M8,16&s;M10,16&s;M12,16&s;M19,16&s;M21,16&s;M23,16&s;M33,16&s;M8,17&s;M12,17&s;M19,17&s;M21,17&s;M22,17&s;M44,17&s;M9,18&s;M21,18&s;M22,18&s;M23,18&s;M40,18&s;M45,18&s;M9,19&s;M19,19&s;M21,19&s;M22,19&s;M40,19&s;M45,19&s;M49,19&s;M19,20&s;M21,20&s;M22,20&s;M40,20&s;M41,20&s;M45,20&s;M46,20&s;M49,20&s;M19,21&s;M21,21&s;M22,21&s;M40,21&s;M41,21&s;M46,21&s;M50,21&s;M18,22&s;M19,22&s;M21,22&s;M22,22&s;M40,22&s;M41,22&s;M46,22&s;M50,22&s;M18,23&s;M19,23&s;M21,23&s;M40,23&s;M42,23&s;M46,23&s;M51,23&s;M18,24&s;M19,24&s;M20,24&s;M41,24&s;M46,24&s;M51,24&s;M17,25&s;M18,25&s;M19,25&s;M20,25&s;M40,25&s;M41,25&s;M47,25&s;M51,25&s;M17,26&s;M18,26&s;M19,26&s;M20,26&s;M21,26&s;M39,26&s;M40,26&s;M47,26&s;M51,26&s;M17,27&s;M18,27&s;M19,27&s;M20,27&s;M21,27&s;M39,27&s;M47,27&s;M52,27&s;M19,28&s;M20,28&s;M21,28&s;M38,28&s;M40,28&s;M47,28&s;M52,28&s;M47,29&s;M52,29&s;M47,30&s;M52,30&s;M47,31&s;M53,31&s;M50,32&s;M53,32&s;M30,33&s;M51,33&s;M53,33&s;M51,34&s;M53,34&s;M23,35&s;M30,35&s;M51,35&s;M54,35&s;M16,36&s;M22,36&s;M48,36&s;M52,36&s;M54,36&s;M16,37&s;M17,37&s;M18,37&s;M19,37&s;M20,37&s;M21,37&s;M22,37&s;M31,37&s;M37,37&s;M49,37&s;M52,37&s;M54,37&s;M16,38&s;M17,38&s;M18,38&s;M19,38&s;M20,38&s;M21,38&s;M22,38&s;M31,38&s;M38,38&s;M49,38&s;M52,38&s;M54,38&s;M16,39&s;M17,39&s;M18,39&s;M19,39&s;M20,39&s;M21,39&s;M22,39&s;M31,39&s;M49,39&s;M50,39&s;M52,39&s;M54,39&s;M17,40&s;M18,40&s;M19,40&s;M20,40&s;M21,40&s;M22,40&s;M28,40&s;M30,40&s;M31,40&s;M49,40&s;M50,40&s;M53,40&s;M55,40&s;M17,41&s;M18,41&s;M19,41&s;M20,41&s;M21,41&s;M22,41&s;M23,41&s;M28,41&s;M29,41&s;M30,41&s;M31,41&s;M49,41&s;M50,41&s;M53,41&s;M55,41&s;M17,42&s;M18,42&s;M19,42&s;M20,42&s;M21,42&s;M22,42&s;M29,42&s;M30,42&s;M49,42&s;M50,42&s;M51,42&s;M53,42&s;M55,42&s;M17,43&s;M18,43&s;M19,43&s;M20,43&s;M21,43&s;M49,43&s;M50,43&s;M51,43&s;M53,43&s;M55,43&s;M17,44&s;M18,44&s;M19,44&s;M20,44&s;M49,44&s;M50,44&s;M51,44&s;M54,44&s;M55,44&s;M18,45&s;M19,45&s;M20,45&s;M49,45&s;M50,45&s;M51,45&s;M54,45&s;M55,45&s;M18,46&s;M19,46&s;M20,46&s;M21,46&s;M49,46&s;M50,46&s;M51,46&s;M52,46&s;M54,46&s;M55,46&s;M19,47&s;M20,47&s;M21,47&s;M22,47&s;M37,47&s;M50,47&s;M51,47&s;M52,47&s;M54,47&s;M55,47&s;M19,48&s;M20,48&s;M21,48&s;M22,48&s;M23,48&s;M32,48&s;M36,48&s;M50,48&s;M51,48&s;M52,48&s;M54,48&s;M55,48&s;M17,49&s;M19,49&s;M20,49&s;M21,49&s;M22,49&s;M26,49&s;M27,49&s;M31,49&s;M34,49&s;M35,49&s;M46,49&s;M50,49&s;M51,49&s;M52,49&s;M54,49&s;M17,50&s;M20,50&s;M21,50&s;M22,50&s;M37,50&s;M45,50&s;M47,50&s;M50,50&s;M51,50&s;M52,50&s;M54,50&s;M17,51&s;M20,51&s;M21,51&s;M31,51&s;M35,51&s;M36,51&s;M48,51&s;M50,51&s;M51,51&s;M52,51&s;M53,51&s;M54,51&s;M17,52&s;M18,52&s;M20,52&s;M21,52&s;M48,52&s;M50,52&s;M51,52&s;M52,52&s;M53,52&s;M54,52&s;M17,53&s;M18,53&s;M19,53&s;M20,53&s;M48,53&s;M49,53&s;M50,53&s;M51,53&s;M52,53&s;M53,53&s;M18,54&s;M19,54&s;M20,54&s;M49,54&s;M50,54&s;M51,54&s;M52,54&s;M53,54&s;M18,55&s;M19,55&s;M49,55&s;M50,55&s;M51,55&s;M52,55&s;M50,56&s;M51,56&s;M52,56&s;M51,57&s;"/>
	<path fill="#fdd7ce" d="M28,11&s;M29,11&s;M34,11&s;M27,12&s;M28,12&s;M34,12&s;M35,12&s;M27,13&s;M34,13&s;M35,13&s;M36,14&s;M25,16&s;M37,17&s;M38,23&s;M38,24&s;M37,26&s;M34,28&s;M35,28&s;M36,28&s;M30,30&s;M31,30&s;M32,30&s;M13,31&s;M14,31&s;M24,34&s;M25,34&s;M26,34&s;M26,35&s;M37,35&s;M38,36&s;M38,37&s;M37,48&s;M36,49&s;M37,49&s;M30,50&s;M31,50&s;M35,50&s;M36,50&s;"/>
	<path fill="#feeeee" d="M29,12&s;M28,13&s;M29,13&s;M30,13&s;M28,14&s;M29,14&s;M30,14&s;M35,14&s;M26,15&s;M27,15&s;M28,15&s;M29,15&s;M30,15&s;M31,15&s;M26,16&s;M27,16&s;M28,16&s;M29,16&s;M30,16&s;M31,16&s;M35,16&s;M36,16&s;M25,17&s;M26,17&s;M27,17&s;M28,17&s;M29,17&s;M30,17&s;M31,17&s;M32,17&s;M35,17&s;M36,17&s;M27,18&s;M28,18&s;M29,18&s;M30,18&s;M31,18&s;M32,18&s;M33,18&s;M36,18&s;M37,18&s;M28,19&s;M29,19&s;M30,19&s;M31,19&s;M32,19&s;M37,19&s;M28,20&s;M29,20&s;M30,20&s;M31,20&s;M32,20&s;M37,20&s;M38,20&s;M24,21&s;M27,21&s;M28,21&s;M29,21&s;M30,21&s;M31,21&s;M32,21&s;M33,21&s;M36,21&s;M37,21&s;M38,21&s;M24,22&s;M25,22&s;M26,22&s;M27,22&s;M28,22&s;M29,22&s;M30,22&s;M31,22&s;M32,22&s;M33,22&s;M34,22&s;M35,22&s;M37,22&s;M38,22&s;M26,23&s;M32,23&s;M33,23&s;M34,23&s;M36,23&s;M37,23&s;M25,24&s;M32,24&s;M33,24&s;M35,24&s;M24,25&s;M25,25&s;M32,25&s;M33,25&s;M35,25&s;M37,25&s;M26,26&s;M33,26&s;M35,26&s;M36,26&s;M25,27&s;M26,27&s;M33,27&s;M34,27&s;M26,28&s;M33,28&s;M13,30&s;M14,30&s;M25,32&s;M26,32&s;M27,32&s;M36,32&s;M37,32&s;M38,32&s;M39,32&s;M24,33&s;M25,33&s;M26,33&s;M36,33&s;M37,33&s;M38,33&s;M36,34&s;M37,34&s;M38,34&s;M38,35&s;M39,35&s;M40,35&s;M39,36&s;M40,36&s;M39,37&s;M28,49&s;M29,50&s;M33,50&s;M34,50&s;"/>
	<path fill="#fff" d="M11,18&s;M10,19&s;M11,19&s;M25,19&s;M26,19&s;M34,19&s;M35,19&s;M10,20&s;M11,20&s;M25,20&s;M26,20&s;M34,20&s;M35,20&s;M11,21&s;M11,22&s;M12,22&s;M11,23&s;M12,23&s;M12,24&s;M12,25&s;M12,26&s;M13,26&s;M13,27&s;M13,28&s;"/>
	<path fill="#7d819f" d="M12,18&s;M12,19&s;M9,20&s;M12,20&s;M10,21&s;M12,21&s;M10,22&s;M13,22&s;M10,23&s;M13,23&s;M11,24&s;M13,24&s;M11,25&s;M13,25&s;M11,26&s;M14,26&s;M12,27&s;M14,27&s;M12,28&s;M14,28&s;M29,31&s;M33,31&s;M32,32&s;M33,32&s;M28,34&s;M32,34&s;M34,34&s;M28,35&s;M32,35&s;M33,35&s;M34,35&s;M35,35&s;M27,36&s;M28,36&s;M32,36&s;M33,36&s;M34,36&s;M35,36&s;M27,37&s;M33,37&s;M34,37&s;M35,37&s;M27,38&s;M33,38&s;M34,38&s;M35,38&s;M27,39&s;M33,39&s;M34,39&s;M26,40&s;M33,40&s;M25,41&s;M24,42&s;M25,42&s;M26,42&s;M32,42&s;M33,42&s;M23,43&s;M24,43&s;M25,43&s;M26,43&s;M27,43&s;M31,43&s;M32,43&s;M33,43&s;M34,43&s;M24,44&s;M25,44&s;M26,44&s;M32,44&s;M33,44&s;M34,44&s;M35,44&s;M25,45&s;M33,45&s;M34,45&s;M35,45&s;M36,45&s;M34,46&s;M35,46&s;"/>
	<path fill="#fb9cdb" d="M23,22&s;M36,22&s;M22,23&s;M24,23&s;M25,23&s;M35,23&s;M22,24&s;M24,24&s;M26,24&s;M34,24&s;M36,24&s;M37,24&s;M22,25&s;M26,25&s;M29,25&s;M30,25&s;M34,25&s;M36,25&s;M38,25&s;M23,26&s;M24,26&s;M25,26&s;M28,26&s;M29,26&s;M30,26&s;M31,26&s;M34,26&s;M38,26&s;M28,27&s;M29,27&s;M30,27&s;M31,27&s;M35,27&s;M36,27&s;M37,27&s;M28,28&s;M29,28&s;M30,28&s;M31,28&s;"/>
	<path fill="#624542" d="M27,23&s;M28,23&s;M29,23&s;M30,23&s;M31,23&s;M27,24&s;M31,24&s;M27,25&s;M31,25&s;M27,26&s;M32,26&s;M27,27&s;M32,27&s;M27,28&s;M32,28&s;M12,29&s;M13,29&s;M14,29&s;M26,29&s;M27,29&s;M28,29&s;M29,29&s;M30,29&s;M31,29&s;M32,29&s;M33,29&s;M34,29&s;M35,29&s;M12,30&s;M12,31&s;M26,31&s;M27,31&s;M36,31&s;M37,31&s;M38,31&s;M39,31&s;M13,32&s;M14,32&s;M40,32&s;M40,33&s;M41,34&s;M24,35&s;M25,35&s;M36,35&s;M41,35&s;M37,36&s;M41,36&s;M32,49&s;M32,50&s;"/>
	<path fill="#242a30" d="M16,29&s;M17,29&s;M18,29&s;M16,30&s;M17,30&s;M18,30&s;M19,30&s;M20,30&s;M21,30&s;M16,31&s;M18,31&s;M19,31&s;M20,31&s;M21,31&s;M22,31&s;M23,31&s;M24,31&s;M16,32&s;M18,32&s;M19,32&s;M20,32&s;M21,32&s;M22,32&s;M23,32&s;M16,33&s;M19,33&s;M20,33&s;M21,33&s;M22,33&s;M20,34&s;M21,34&s;M22,34&s;M38,39&s;M39,39&s;M40,40&s;M41,40&s;M42,40&s;M40,41&s;M41,41&s;M42,41&s;M40,42&s;M41,42&s;M42,42&s;M28,43&s;M30,43&s;M41,43&s;M42,43&s;M43,43&s;M22,44&s;M41,44&s;M42,44&s;M43,44&s;M22,45&s;M23,45&s;M27,45&s;M41,45&s;M42,45&s;M43,45&s;M23,46&s;M26,46&s;M29,46&s;M41,46&s;M42,46&s;M43,46&s;M25,47&s;M26,47&s;M29,47&s;M30,47&s;M41,47&s;M42,47&s;M29,48&s;M30,48&s;M33,48&s;M28,51&s;M28,52&s;M29,52&s;M30,52&s;M33,52&s;M34,52&s;M35,52&s;M36,52&s;M28,53&s;M29,53&s;M30,53&s;M33,53&s;M34,53&s;M35,53&s;M36,53&s;M28,54&s;M29,54&s;M30,54&s;M33,54&s;M34,54&s;M35,54&s;M36,54&s;M28,55&s;M29,55&s;M34,55&s;M35,55&s;M36,55&s;M28,56&s;M29,56&s;M34,56&s;M35,56&s;M36,56&s;M28,57&s;M29,57&s;M35,57&s;"/>
	<path fill="#424a57" d="M29,30&s;M33,30&s;M34,30&s;M35,30&s;M36,30&s;M28,31&s;M30,31&s;M31,31&s;M32,31&s;M35,31&s;M28,32&s;M29,32&s;M31,32&s;M35,32&s;M27,33&s;M28,33&s;M32,33&s;M34,33&s;M35,33&s;M27,34&s;M33,34&s;M35,34&s;M27,35&s;M26,36&s;M26,37&s;M26,38&s;M26,39&s;M25,40&s;M24,41&s;M23,42&s;M22,43&s;M23,44&s;M27,44&s;M31,44&s;M24,45&s;M26,45&s;M32,45&s;M25,46&s;M33,46&s;M36,46&s;M34,47&s;M35,47&s;"/>
	<path fill="#171c28" d="M17,31&s;M17,32&s;M17,33&s;M18,33&s;M16,34&s;M17,34&s;M18,34&s;M19,34&s;M17,35&s;M18,35&s;M19,35&s;M20,35&s;M21,35&s;M38,40&s;M39,40&s;M38,41&s;M39,41&s;M38,42&s;M39,42&s;M38,43&s;M39,43&s;M40,43&s;M28,44&s;M30,44&s;M38,44&s;M39,44&s;M40,44&s;M28,45&s;M30,45&s;M31,45&s;M38,45&s;M39,45&s;M40,45&s;M24,46&s;M27,46&s;M30,46&s;M31,46&s;M38,46&s;M39,46&s;M40,46&s;M44,46&s;M27,47&s;M31,47&s;M33,47&s;M36,47&s;M38,47&s;M39,47&s;M40,47&s;M43,47&s;M44,47&s;M26,48&s;M27,48&s;M31,48&s;M34,48&s;M35,48&s;M39,48&s;M40,48&s;M41,48&s;M42,48&s;M37,51&s;M31,52&s;M37,52&s;M31,53&s;M37,53&s;M31,54&s;M37,54&s;M30,55&s;M31,55&s;M37,55&s;M30,56&s;M31,56&s;M37,56&s;M30,57&s;M36,57&s;M37,57&s;M26,58&s;M27,58&s;M28,58&s;M29,58&s;M30,58&s;M35,58&s;M36,58&s;M37,58&s;M38,58&s;M39,58&s;"/>
	<path fill="#5c6973" d="M34,31&s;M34,32&s;M33,33&s;M36,36&s;M36,37&s;M36,38&s;M35,39&s;M36,39&s;M34,40&s;M35,40&s;M36,40&s;M26,41&s;M33,41&s;M34,41&s;M35,41&s;M36,41&s;M27,42&s;M34,42&s;M35,42&s;M36,42&s;M35,43&s;M36,43&s;M36,44&s;"/>
	</g>
</defs>
<use xlink:href="#d"/>
</svg>